<svg width="25" height="25" viewBox="0 0 25 25" fill="none" xmlns="http://www.w3.org/2000/svg">
<circle cx="12.5" cy="12.5" r="12.5" fill="white"/>
<path fill-rule="evenodd" clip-rule="evenodd" d="M12.6143 6C11.2325 6 9.88997 6.4604 8.79606 7.30325C7.78745 8.08016 7.04259 9.1442 6.65648 10.3508C6.24549 10.4092 5.86137 10.5979 5.56439 10.8942C5.20333 11.2546 5 11.7439 5 12.2537C5 12.7635 5.20333 13.2531 5.56439 13.6133C5.8612 13.9095 6.24499 14.0986 6.65565 14.1567C7.28181 16.1169 8.83897 17.6531 10.8265 18.2474C12.269 18.6759 13.8188 18.5723 15.1908 17.9548C16.5628 17.3373 17.6666 16.2474 18.2996 14.8844C18.4098 14.6475 18.5041 14.4039 18.5834 14.1557C18.9907 14.0956 19.3713 13.9073 19.6659 13.6133C20.027 13.2531 20.2302 12.7637 20.2302 12.2538C20.2302 11.744 20.027 11.2546 19.6659 10.8943C19.3713 10.6002 18.9907 10.4116 18.5834 10.352C18.1465 8.98561 17.2508 7.80689 16.0426 7.0188C15.9941 6.98709 15.9397 6.96527 15.8827 6.95457C15.8257 6.94388 15.7671 6.94451 15.7104 6.95645C15.6536 6.96839 15.5997 6.99139 15.5519 7.02414C15.504 7.05689 15.463 7.09875 15.4313 7.14734C15.3996 7.19591 15.3778 7.25026 15.3671 7.30727C15.3564 7.36429 15.3571 7.42285 15.369 7.47962C15.3809 7.53638 15.4039 7.59024 15.4367 7.63812C15.4694 7.686 15.5113 7.72695 15.5599 7.75865C16.6758 8.48664 17.4808 9.60143 17.8198 10.8875C17.8456 10.9854 17.9043 11.0715 17.986 11.1314C18.0677 11.1912 18.1675 11.2212 18.2687 11.2162C18.2854 11.2155 18.2938 11.2152 18.3071 11.215C18.5832 11.2155 18.8473 11.3252 19.0423 11.5197C19.2378 11.7146 19.3473 11.9784 19.3473 12.2538C19.3473 12.5293 19.2371 12.793 19.0423 12.988C18.8473 13.1827 18.5832 13.2922 18.3073 13.2927C18.2906 13.2925 18.2822 13.2922 18.2689 13.2915C18.1677 13.2865 18.0678 13.3164 17.986 13.3763C17.9043 13.4362 17.8456 13.5223 17.8198 13.6204C17.7397 13.9265 17.6317 14.2252 17.4985 14.5125C16.9548 15.6828 16.0071 16.6188 14.8282 17.1493C13.6493 17.6799 12.3187 17.7692 11.0792 17.4011C9.28101 16.8634 7.89479 15.4314 7.41836 13.6204C7.39261 13.5225 7.33403 13.4364 7.25241 13.3765C7.17078 13.3167 7.07108 13.2866 6.96997 13.2915C6.95328 13.2923 6.93992 13.2927 6.9249 13.2927C6.64847 13.2925 6.38388 13.1825 6.18856 12.988C5.99325 12.793 5.88374 12.5293 5.88374 12.2538C5.88374 11.9784 5.99392 11.7146 6.18856 11.5197C6.38405 11.3245 6.64914 11.215 6.9259 11.215C6.93147 11.2151 6.93703 11.215 6.94259 11.2148C6.95929 11.2145 6.97431 11.2145 6.98934 11.2148C7.08853 11.2171 7.18559 11.1858 7.26488 11.1262C7.34416 11.0665 7.40105 10.9819 7.42637 10.886C7.72853 9.74065 8.40176 8.7272 9.34161 8.0032C10.2803 7.28005 11.4318 6.88658 12.6177 6.88358C13.1817 6.90194 13.6467 7.3136 13.7305 7.86999C13.8139 8.42872 13.4886 8.9609 12.9505 9.14086C12.4125 9.32081 11.8296 9.09245 11.559 8.59532C11.5029 8.49245 11.4084 8.41606 11.296 8.38294C11.1836 8.34981 11.0627 8.36268 10.9599 8.4187C10.9089 8.44646 10.8639 8.48398 10.8275 8.52912C10.7911 8.57426 10.7639 8.62614 10.7475 8.6818C10.7311 8.73745 10.7258 8.79578 10.732 8.85347C10.7382 8.91115 10.7556 8.96706 10.7834 9.01799C11.2565 9.88638 12.2925 10.2925 13.2307 9.97853C14.169 9.6647 14.7509 8.71634 14.6038 7.73861C14.4569 6.76088 13.6221 6.02537 12.6329 6.00017L12.6143 6ZM10.652 11.5489C10.3377 11.5489 10.0808 11.8105 10.0808 12.1306C10.0808 12.4508 10.3377 12.7127 10.652 12.7127C10.9664 12.7127 11.2231 12.4508 11.2231 12.1306C11.2231 11.8105 10.9664 11.5489 10.652 11.5489ZM14.5785 11.5489C14.2642 11.5489 14.0071 11.8105 14.0071 12.1306C14.0071 12.4508 14.2642 12.7127 14.5785 12.7127C14.8926 12.7127 15.1496 12.4508 15.1496 12.1306C15.1496 11.8105 14.8926 11.5489 14.5785 11.5489ZM10.6889 14.2004C10.5777 14.2064 10.4728 14.2541 10.3953 14.334C10.3553 14.3761 10.3241 14.4257 10.3033 14.4798C10.2825 14.534 10.2726 14.5918 10.2742 14.6498C10.2757 14.7078 10.2887 14.7649 10.3123 14.8179C10.336 14.8709 10.3698 14.9188 10.412 14.9587C10.9946 15.5221 11.7912 15.8337 12.6215 15.8337C13.4517 15.8337 14.2485 15.5221 14.8309 14.9587C14.873 14.9188 14.9069 14.8709 14.9305 14.8179C14.9542 14.7649 14.9671 14.7078 14.9687 14.6498C14.9702 14.5918 14.9603 14.534 14.9395 14.4798C14.9188 14.4257 14.8875 14.3761 14.8476 14.334C14.8077 14.2919 14.7598 14.258 14.7069 14.2344C14.6539 14.2107 14.5967 14.1978 14.5387 14.1962C14.4807 14.1947 14.4229 14.2046 14.3688 14.2253C14.3146 14.2461 14.265 14.2774 14.2229 14.3173C13.8141 14.7129 13.2355 14.9441 12.6277 14.9441C12.0197 14.9441 11.4413 14.7129 11.0323 14.3173C10.9603 14.2479 10.8669 14.2049 10.7674 14.1954C10.7457 14.1934 10.724 14.1929 10.7023 14.1941L10.6889 14.2004Z" fill="#3805F2"/>
</svg>
