<svg width="19" height="25" viewBox="0 0 19 25" fill="none" xmlns="http://www.w3.org/2000/svg">
<path d="M16.0296 2.62471C14.2979 0.944123 11.9494 0 9.50056 0C7.05176 0 4.70325 0.944123 2.97156 2.62471C-0.636497 6.12531 -1.1101 11.0682 2.38627 16.0842C4.16121 18.6311 9.49978 24.9992 9.49978 24.9992C9.49978 24.9992 14.838 18.6311 16.6133 16.0842C20.1097 11.0682 19.636 6.12531 16.0296 2.62471ZM9.49978 14.6143C8.40066 14.6143 7.32623 14.2979 6.41234 13.7052C5.49846 13.1125 4.78618 12.2701 4.36557 11.2845C3.94495 10.2988 3.8349 9.21426 4.04933 8.16792C4.26375 7.12157 4.79303 6.16045 5.57022 5.40607C6.34741 4.6517 7.33762 4.13797 8.41561 3.92984C9.49361 3.7217 10.611 3.82853 11.6264 4.23679C12.6419 4.64505 13.5098 5.33642 14.1204 6.22347C14.7311 7.11052 15.057 8.1534 15.057 9.22025C15.057 10.6508 14.4715 12.0228 13.4293 13.0344C12.3871 14.046 10.9736 14.6143 9.49978 14.6143Z" fill="#3805F2"/>
</svg>
