<svg width="25" height="25" viewBox="0 0 25 25" fill="none" xmlns="http://www.w3.org/2000/svg">
<circle cx="12.5" cy="12.5" r="12.5" fill="white"/>
<path d="M19.3848 17.8837C17.7758 16.8931 16.0426 16.3518 14.0924 16.231V15.3705C14.5099 15.1833 14.8829 14.917 15.1879 14.588H16.5015C17.2573 14.588 17.8724 13.9938 17.8724 13.2638V10.0414C17.8724 7.26154 15.5486 5 12.6924 5C9.83614 5 7.51242 7.26154 7.51242 10.0414V13.2638C7.51242 13.9938 8.12744 14.588 8.88344 14.588H10.1989C10.5038 14.9163 10.8758 15.1826 11.2924 15.3699V16.231C9.34236 16.3518 7.60916 16.8931 6 17.8837L6.2247 18.2283C7.7059 17.3167 9.2354 16.8145 10.9994 16.6628C11.4757 16.903 12.0847 17.036 12.7273 17.036C13.3623 17.036 13.9727 16.9053 14.4476 16.6684C16.1853 16.8264 17.6963 17.3274 19.1599 18.2283L19.3848 17.8837ZM8.88344 14.18C8.359 14.18 7.93242 13.769 7.93242 13.2638V10.0414C7.93242 7.48635 10.0677 5.40786 12.6924 5.40786C15.317 5.40786 17.4524 7.48635 17.4524 10.0412V13.2638C17.4524 13.769 17.0258 14.18 16.5015 14.18H15.5102C15.7954 13.7538 15.9828 13.2596 16.0363 12.7259C16.2473 12.5767 16.4146 12.3278 16.4945 12.038C16.5658 11.7797 16.5615 11.5152 16.4818 11.2937C16.4012 11.069 16.2463 10.9043 16.0524 10.8344V9.90212C16.1051 9.89722 16.1578 9.89314 16.2095 9.88458C16.3237 9.86608 16.4012 9.76109 16.382 9.64984C16.3628 9.53859 16.2544 9.46325 16.1402 9.48215C14.9652 9.67282 13.294 8.72681 13.1088 7.76746C13.091 7.67512 13.0108 7.60658 12.9142 7.60127C12.8179 7.59692 12.7299 7.6554 12.7015 7.74516C12.2776 9.08626 10.2686 9.7309 8.97724 9.76C8.86132 9.76272 8.76948 9.85615 8.77228 9.96876C8.77494 10.0797 8.86846 10.168 8.98214 10.168H8.98718C9.09736 10.1653 9.2137 10.1571 9.33228 10.146V10.8243C9.12396 10.8876 8.95722 11.0573 8.87238 11.2937C8.79286 11.5152 8.78838 11.7795 8.85964 12.038C8.94462 12.346 9.12396 12.6027 9.35062 12.7481C9.40704 13.2732 9.59324 13.7598 9.87492 14.18H8.88344ZM9.75984 12.6092L9.75116 12.4892L9.63888 12.4385C9.47662 12.3652 9.33004 12.1665 9.2655 11.9325C9.2165 11.7547 9.2179 11.571 9.26914 11.4279C9.29364 11.3598 9.3516 11.2412 9.465 11.2115C9.4811 11.2074 9.49776 11.2051 9.52492 11.2051C9.52492 11.2051 9.5287 11.2051 9.5308 11.2051L9.75242 11.2174V10.0925C10.9203 9.89695 12.2847 9.32426 12.8869 8.33758C13.3609 9.15942 14.5443 9.83711 15.6324 9.90688V11.2021L15.8395 11.205C15.8564 11.2053 15.8731 11.2074 15.889 11.2117C16.0029 11.2413 16.0608 11.3599 16.0852 11.4282C16.1364 11.5711 16.1378 11.7548 16.0888 11.9326C16.0268 12.1573 15.8917 12.3473 15.7359 12.4287L15.6335 12.4822L15.626 12.5951C15.5253 14.0919 14.2366 15.2643 12.6924 15.2643C11.1558 15.2643 9.86778 14.0981 9.75984 12.6092ZM11.7124 16.4961V15.5275C12.0235 15.6205 12.3522 15.6722 12.6924 15.6722C13.0328 15.6722 13.3613 15.6206 13.6724 15.528V16.515C13.3791 16.588 13.0584 16.6279 12.7274 16.6279C12.3735 16.628 12.0252 16.5809 11.7124 16.4961Z" fill="#3805F2" stroke="#3805F2" stroke-width="0.4"/>
</svg>
