<svg width="75" height="79" viewBox="0 0 75 79" fill="none" xmlns="http://www.w3.org/2000/svg">
<path d="M40.7443 1.45C42.03 0.456997 45.0433 -1.01758 46.812 1.02658C48.5804 3.07089 47.1577 5.9702 46.2248 7.16473L40.2666 14.0168C38.8764 15.1301 36.6823 17.9933 39.0279 20.5396C41.3735 23.0859 44.6306 19.9233 45.966 18.0234C46.8754 16.492 50.2518 12.9141 52.8484 15.1719C55.4446 17.4296 52.2801 21.1276 51.0383 22.7501L42.2839 33.6821C39.2193 38.2994 44.6894 41.8242 48.0515 38.2024C49.9119 36.1983 52.4009 33.2836 53.0687 32.4325C54.9057 30.0911 57.7079 26.5502 60.5664 28.6793C63.5606 30.9097 59.5362 35.55 58.6329 36.5102C58.7332 36.4113 58.8801 36.2687 59.082 36.078L68.4658 24.9217C69.0851 24.0881 71.4785 21.9564 73.7675 23.693C76.629 25.8646 73.7626 29.6334 72.6207 31.0681L64.4674 40.4446L40.2136 68.0412C36.5153 72.2492 32.5076 76.5564 27.0611 77.8676C21.6746 79.1643 14.5808 78.7658 7.47445 73.2147C-0.856926 66.7066 -0.899932 57.6406 1.06085 50.9528C2.34609 46.5693 5.27133 42.928 8.22311 39.4418L27.2609 16.9575L40.7443 1.45Z" fill="white"/>
</svg>
