<svg width="70" height="70" viewBox="0 0 70 70" fill="none" xmlns="http://www.w3.org/2000/svg">
<path d="M70 35.0133C60.7192 35.0133 51.8185 38.6994 45.256 45.2606C38.6934 51.8219 35.0066 60.7209 35.0066 70C35.0031 60.7197 31.3134 51.8207 24.7487 45.2598C18.1841 38.6989 9.28204 35.0133 0 35.0133C9.28555 35.0097 18.1896 31.3193 24.7542 24.7534C31.3189 18.1875 35.0066 9.2838 35.0066 0C35.0049 4.59627 35.9086 9.14787 37.6663 13.3949C39.4239 17.642 42.001 21.5013 45.2505 24.7526C48.4999 28.0039 52.358 30.5834 56.6046 32.344C60.8511 34.1045 65.4029 35.0115 70 35.0133Z" fill="#3805F2"/>
</svg>
