<svg width="32" height="32" viewBox="0 0 32 32" fill="none" xmlns="http://www.w3.org/2000/svg">
<circle cx="16" cy="16" r="16" fill="#3805F2"/>
<path d="M23.6659 20.1205C23.575 20.4856 23.3957 20.8186 23.1461 21.0858C22.8964 21.353 22.5854 21.545 22.2443 21.6424C21.0004 22 15.9964 22 15.9964 22C15.9964 22 10.9942 22 9.74678 21.6424C9.4071 21.5441 9.09764 21.3516 8.84961 21.0844C8.60158 20.8172 8.42376 20.4847 8.33407 20.1205C8 18.7888 8 16 8 16C8 16 8 13.215 8.33407 11.8795C8.42392 11.5154 8.6018 11.183 8.84981 10.9158C9.09781 10.6486 9.40718 10.4561 9.74678 10.3576C10.9907 10 15.9964 10 15.9964 10C15.9964 10 20.9969 10 22.2443 10.3576C22.5853 10.4552 22.8963 10.6472 23.1459 10.9144C23.3954 11.1816 23.5748 11.5145 23.6659 11.8795C24 13.2112 24 16 24 16C24 16 24 18.785 23.6659 20.1205ZM14.4043 13.4318V18.5682L18.5589 16L14.4043 13.4318Z" fill="white"/>
</svg>
