<svg width="37" height="37" viewBox="0 0 37 37" fill="none" xmlns="http://www.w3.org/2000/svg">
<path d="M21.4203 0.573044C22.069 0.140624 23.5608 -0.464763 24.3392 0.573044C25.1174 1.61084 24.3393 2.95141 23.8529 3.49191L20.7719 6.57289C20.0692 7.05951 18.9237 8.35676 19.9614 9.65386C20.9992 10.9506 22.6639 9.54504 23.3666 8.68025C23.8532 7.97752 25.5887 6.37829 26.7561 7.54552C27.9236 8.71298 26.2857 10.3776 25.637 11.1128L21.0815 16.0531C19.4599 18.1611 21.9603 20.0311 23.6908 18.4095C24.6482 17.5123 25.9372 16.201 26.2854 15.8158C27.2429 14.7565 28.7021 13.1551 29.9992 14.269C31.3581 15.4366 29.2772 17.524 28.8127 17.9534C28.864 17.9095 28.9391 17.8457 29.0422 17.7611L33.9063 12.7348C34.2306 12.3565 35.4485 11.4156 36.4863 12.3237C37.7831 13.4588 36.285 15.1672 35.6905 15.8158L31.4748 20.0315L22.0482 29.3584C18.0714 33.2934 13.4019 37.9124 7.98319 36.5203C6.39183 36.1115 4.72281 35.2789 3.0966 33.8153C0.585698 31.5555 -0.127897 28.8747 0.0185542 26.4103C0.289296 21.8566 3.88431 18.3902 7.0672 15.1225L14.4479 7.54552L21.4203 0.573044ZM10.5007 19.9993C6.91094 19.9993 4.00087 22.9094 4.00087 26.4991C4.00099 30.0888 6.91101 32.9989 10.5007 32.9989C14.0902 32.9987 17.0004 30.0886 17.0005 26.4991C17.0005 22.9095 14.0903 19.9995 10.5007 19.9993Z" fill="white"/>
<path d="M13.6459 25.9177C14.3441 26.2959 14.3441 27.298 13.6459 27.6762L9.69794 29.8147C9.03166 30.1756 8.22169 29.6932 8.22169 28.9354L8.22169 24.6585C8.22169 23.9008 9.03165 23.4183 9.69794 23.7793L13.6459 25.9177Z" fill="white"/>
</svg>
