<svg width="22" height="22" viewBox="0 0 22 22" fill="none" xmlns="http://www.w3.org/2000/svg">
<path fill-rule="evenodd" clip-rule="evenodd" d="M10.7648 0.0229695C8.16474 0.22063 5.72856 1.36894 3.92136 3.24866C2.11416 5.12838 1.06254 7.60783 0.967271 10.2136C0.892409 12.3598 1.47838 14.4771 2.64595 16.2794L0 21.6025C0.081126 21.6025 6.54 19.8614 6.54 19.8614C7.98083 20.6219 9.57835 21.0381 11.2071 21.0772C12.8359 21.1164 14.4515 20.7774 15.9272 20.0869C17.4029 19.3964 18.6984 18.3732 19.7121 17.0977C20.7257 15.8222 21.4298 14.329 21.7692 12.7355C22.1085 11.142 22.0739 9.49155 21.6679 7.91371C21.2619 6.33586 20.4957 4.87362 19.4294 3.64179C18.3631 2.40996 17.0257 1.4421 15.5223 0.814202C14.019 0.186305 12.3905 -0.0845285 10.7648 0.0229695ZM11.5074 19.2373C9.97268 19.237 8.46544 18.83 7.13908 18.0579L6.8021 17.8395L6.42767 17.9643L3.5321 18.7755L4.78019 16.0672C3.53057 14.5378 2.83858 12.6286 2.81802 10.6537C2.79745 8.67879 3.44952 6.75566 4.66701 5.20053C5.8845 3.6454 7.59494 2.55085 9.51707 2.09685C11.4392 1.64286 13.4586 1.85645 15.2433 2.7025C17.0279 3.54854 18.4715 4.97669 19.3367 6.7521C20.202 8.52751 20.4373 10.5445 20.004 12.4714C19.5708 14.3983 18.4947 16.1205 16.9528 17.3547C15.4109 18.5888 13.4949 19.2616 11.5199 19.2623L11.5074 19.2373Z" fill="white"/>
<path fill-rule="evenodd" clip-rule="evenodd" d="M15.5573 12.1421C15.3437 11.9731 15.0947 11.8544 14.8289 11.795C14.5631 11.7355 14.2873 11.7369 14.0221 11.7989C13.6227 11.9611 13.3981 12.5852 13.111 12.9034C13.0559 12.9782 12.9754 13.0303 12.8846 13.0498C12.7938 13.0694 12.699 13.055 12.618 13.0095C11.1586 12.4379 9.93416 11.3915 9.14206 10.0391C9.07652 9.95192 9.04594 9.84341 9.05634 9.73487C9.06673 9.62632 9.11734 9.52559 9.19823 9.45246C9.49179 9.17146 9.7069 8.81868 9.82227 8.42903C9.84437 8.0071 9.74704 7.58749 9.54145 7.21838C9.3769 6.69241 9.06504 6.22463 8.64283 5.87044C8.42531 5.77343 8.18457 5.74068 7.94904 5.77607C7.71351 5.81145 7.49302 5.91349 7.31361 6.07013C7.00703 6.33386 6.76371 6.66318 6.60167 7.03371C6.43963 7.40423 6.36303 7.80647 6.37754 8.21061C6.37954 8.43964 6.40674 8.66775 6.45867 8.89082C6.98226 10.7181 8.11104 12.3134 9.66002 13.4152C10.9081 14.3824 13.0486 15.6992 14.7273 15.3809C15.1436 15.3166 15.538 15.1517 15.8762 14.9005C16.2144 14.6493 16.4862 14.3194 16.6681 13.9394C16.7745 13.7072 16.8072 13.448 16.7617 13.1967C16.6556 12.6913 15.9691 12.3917 15.5573 12.1421Z" fill="white"/>
</svg>
