<svg width="810" height="221" viewBox="0 0 810 221" fill="none" xmlns="http://www.w3.org/2000/svg">
<ellipse cx="56.8707" cy="57.0379" rx="56.8707" ry="57.0379" transform="matrix(0.900934 0.433957 -0.430662 0.902513 611.175 0)" fill="#3805F2"/>
<g filter="url(#filter0_d_81_486)">
<path d="M626.571 50.5102C648.524 41.6391 669.589 36.6956 685.882 35.8505C694.033 35.4278 700.933 36.034 706.135 37.6482C711.346 39.2654 714.7 41.8405 716.065 45.2479C717.43 48.6553 716.785 52.8462 714.141 57.6377C711.502 62.4203 706.942 67.6575 700.77 73.0228C688.434 83.7466 669.829 94.8338 647.877 103.705C625.924 112.576 604.858 117.519 588.566 118.364C580.414 118.787 573.514 118.181 568.313 116.567C563.102 114.95 559.747 112.374 558.382 108.967C557.018 105.56 557.662 101.369 560.306 96.5773C562.946 91.7947 567.505 86.5575 573.677 81.1922C586.013 70.4684 604.618 59.3812 626.571 50.5102Z" stroke="#3805F2" stroke-width="2" shape-rendering="crispEdges"/>
</g>
<path d="M408.026 25.0107C570.828 26.0398 715.708 102.44 809.391 221H806.839C712.853 102.805 567.647 27.0002 404.695 27C241.744 27.0001 96.5375 102.805 2.55176 221H0C94.3215 101.632 240.54 25.0001 404.695 25L408.026 25.0107ZM406.686 120C505.785 120 595.852 158.388 662.618 221H659.687C593.441 159.588 504.488 122 406.686 122C308.883 122 219.931 159.588 153.686 221H150.753C217.519 158.388 307.586 120 406.686 120Z" fill="#3805F2"/>
<path d="M192.361 144.442C191.529 143.051 190.421 139.892 192.642 138.374C194.865 136.857 197.564 138.605 198.636 139.669L204.713 146.372C205.652 147.88 208.226 150.387 211.01 148.356C213.794 146.324 211.047 142.728 209.325 141.183C207.918 140.104 204.776 136.339 207.304 134.025C209.832 131.712 213.119 135.28 214.578 136.699L224.36 146.648C228.566 150.224 232.677 145.206 229.489 141.451C227.724 139.373 225.134 136.567 224.371 135.806C222.271 133.713 219.098 130.524 221.529 127.935C224.077 125.223 228.193 129.753 229.037 130.76C228.951 130.649 228.828 130.487 228.662 130.264L218.73 119.664C217.978 118.953 216.15 116.331 218.129 114.262C220.603 111.675 223.993 114.955 225.278 116.254L233.594 125.427L258.036 152.674C261.769 156.836 265.562 161.315 266.229 166.865C266.889 172.358 265.678 179.35 259.377 185.757C252.002 193.256 243.062 192.262 236.687 189.551C232.485 187.765 229.216 184.428 226.105 181.085L206.117 159.614L192.361 144.442Z" fill="#3805F2"/>
<defs>
<filter id="filter0_d_81_486" x="552.688" y="34.7191" width="169.072" height="92.7767" filterUnits="userSpaceOnUse" color-interpolation-filters="sRGB">
<feFlood flood-opacity="0" result="BackgroundImageFix"/>
<feColorMatrix in="SourceAlpha" type="matrix" values="0 0 0 0 0 0 0 0 0 0 0 0 0 0 0 0 0 0 127 0" result="hardAlpha"/>
<feOffset dy="4"/>
<feGaussianBlur stdDeviation="2"/>
<feComposite in2="hardAlpha" operator="out"/>
<feColorMatrix type="matrix" values="0 0 0 0 0 0 0 0 0 0 0 0 0 0 0 0 0 0 0.25 0"/>
<feBlend mode="normal" in2="BackgroundImageFix" result="effect1_dropShadow_81_486"/>
<feBlend mode="normal" in="SourceGraphic" in2="effect1_dropShadow_81_486" result="shape"/>
</filter>
</defs>
</svg>
